<svg width="31" height="31" viewBox="0 0 31 31" fill="none" xmlns="http://www.w3.org/2000/svg">
<path d="M5.64588 24.8C5.72338 24.8 5.80088 24.7922 5.87838 24.7806L12.3961 23.6375C12.4736 23.622 12.5473 23.5871 12.6015 23.529L29.0276 7.10287C29.0635 7.06703 29.092 7.02444 29.1115 6.97757C29.1309 6.93069 29.1409 6.88044 29.1409 6.82969C29.1409 6.77894 29.1309 6.72868 29.1115 6.68181C29.092 6.63493 29.0635 6.59235 29.0276 6.5565L22.5874 0.112375C22.5138 0.0387501 22.4169 0 22.3123 0C22.2076 0 22.1108 0.0387501 22.0371 0.112375L5.611 16.5385C5.55287 16.5966 5.518 16.6664 5.5025 16.7439L4.35938 23.2616C4.32168 23.4692 4.33515 23.6829 4.39862 23.8841C4.46209 24.0853 4.57364 24.268 4.72362 24.4164C4.97937 24.6644 5.301 24.8 5.64588 24.8ZM8.25763 18.042L22.3123 3.99125L25.1526 6.83162L11.098 20.8824L7.65313 21.4907L8.25763 18.042ZM29.76 28.055H1.24C0.554125 28.055 0 28.6091 0 29.295V30.69C0 30.8605 0.1395 31 0.31 31H30.69C30.8605 31 31 30.8605 31 30.69V29.295C31 28.6091 30.4459 28.055 29.76 28.055Z" fill="#333333"/>
</svg>
