<svg width="593" height="47" viewBox="0 0 593 47" fill="none" xmlns="http://www.w3.org/2000/svg">
<rect y="9" width="592" height="38" fill="#97BFF6"/>
<rect y="9" width="553" height="38" fill="#2F80ED"/>
<line x1="13.5" y1="2.1745e-08" x2="13.5" y2="47" stroke="white"/>
<line x1="0.5" y1="2.1745e-08" x2="0.499998" y2="47" stroke="white"/>
<line x1="26.5" y1="2.13535e-08" x2="26.5" y2="47" stroke="white"/>
<line x1="51.5" y1="2.23545e-08" x2="51.5" y2="47" stroke="white"/>
<line x1="64.5" y1="2.16785e-08" x2="64.5" y2="47" stroke="white"/>
<line x1="77.5" y1="2.17883e-08" x2="77.5" y2="47" stroke="white"/>
<line x1="103.5" y1="2.18253e-08" x2="103.5" y2="47" stroke="white"/>
<line x1="116.5" y1="2.17883e-08" x2="116.5" y2="47" stroke="white"/>
<line x1="142.5" y1="2.17514e-08" x2="142.5" y2="47" stroke="white"/>
<line x1="154.5" y1="2.19362e-08" x2="154.5" y2="47" stroke="white"/>
<line x1="167.5" y1="2.18619e-08" x2="167.5" y2="47" stroke="white"/>
<line x1="193.5" y1="2.19362e-08" x2="193.5" y2="47" stroke="white"/>
<line x1="206.5" y1="2.18619e-08" x2="206.5" y2="47" stroke="white"/>
<line x1="232.5" y1="2.17883e-08" x2="232.5" y2="47" stroke="white"/>
<line x1="245.5" y1="2.18623e-08" x2="245.5" y2="47" stroke="white"/>
<line x1="257.5" y1="2.17881e-08" x2="257.5" y2="47" stroke="white"/>
<line x1="283.5" y1="2.19362e-08" x2="283.5" y2="47" stroke="white"/>
<line x1="296.5" y1="2.1862e-08" x2="296.5" y2="47" stroke="white"/>
<line x1="322.5" y1="2.19362e-08" x2="322.5" y2="47" stroke="white"/>
<line x1="335.5" y1="2.1862e-08" x2="335.5" y2="47" stroke="white"/>
<line x1="347.5" y1="2.1899e-08" x2="347.5" y2="47" stroke="white"/>
<line x1="373.5" y1="2.1862e-08" x2="373.5" y2="47" stroke="white"/>
<line x1="386.5" y1="2.1899e-08" x2="386.5" y2="47" stroke="white"/>
<line x1="39.5" y1="2.15776e-08" x2="39.5" y2="47" stroke="white"/>
<line x1="90.5" y1="2.19745e-08" x2="90.5" y2="47" stroke="white"/>
<line x1="129.5" y1="2.18623e-08" x2="129.5" y2="47" stroke="white"/>
<line x1="180.5" y1="2.1899e-08" x2="180.5" y2="47" stroke="white"/>
<line x1="219.5" y1="2.1899e-08" x2="219.5" y2="47" stroke="white"/>
<line x1="270.5" y1="2.19362e-08" x2="270.5" y2="47" stroke="white"/>
<line x1="309.5" y1="2.1899e-08" x2="309.5" y2="47" stroke="white"/>
<line x1="360.5" y1="2.19362e-08" x2="360.5" y2="47" stroke="white"/>
<line x1="399.5" y1="2.19362e-08" x2="399.5" y2="47" stroke="white"/>
<line x1="425.5" y1="2.1862e-08" x2="425.5" y2="47" stroke="white"/>
<line x1="450.5" y1="2.1862e-08" x2="450.5" y2="47" stroke="white"/>
<line x1="463.5" y1="2.1862e-08" x2="463.5" y2="47" stroke="white"/>
<line x1="412.5" y1="2.1862e-08" x2="412.5" y2="47" stroke="white"/>
<line x1="438.5" y1="2.1862e-08" x2="438.5" y2="47" stroke="white"/>
<line x1="476.5" y1="2.1862e-08" x2="476.5" y2="47" stroke="white"/>
<line x1="489.5" y1="2.1862e-08" x2="489.5" y2="47" stroke="white"/>
<line x1="502.5" y1="2.1862e-08" x2="502.5" y2="47" stroke="white"/>
<line x1="515.5" y1="2.19734e-08" x2="515.5" y2="47" stroke="white"/>
<line x1="528.5" y1="2.19734e-08" x2="528.5" y2="47" stroke="white"/>
<line x1="541.5" y1="2.19734e-08" x2="541.5" y2="47" stroke="white"/>
<line x1="553.5" y1="2.19734e-08" x2="553.5" y2="47" stroke="white"/>
<line x1="566.5" y1="2.19734e-08" x2="566.5" y2="47" stroke="white"/>
<line x1="579.5" y1="2.19734e-08" x2="579.5" y2="47" stroke="white"/>
<line x1="592.5" y1="2.19734e-08" x2="592.5" y2="47" stroke="white"/>
</svg>
